<?xml version="1.0" standalone="no"?>
<!DOCTYPE svg PUBLIC "-//W3C//DTD SVG 20010904//EN"
 "http://www.w3.org/TR/2001/REC-SVG-20010904/DTD/svg10.dtd">
<svg version="1.0" xmlns="http://www.w3.org/2000/svg"
 width="713.000000pt" height="714.000000pt" viewBox="0 0 713.000000 714.000000"
 preserveAspectRatio="xMidYMid meet">
<metadata>
Created by potrace 1.13, written by Peter Selinger 2001-2015
</metadata>
<g transform="translate(0.000000,714.000000) scale(0.100000,-0.100000)"
fill="#000000" stroke="none">
<path d="M3450 7133 c-301 -9 -616 -59 -900 -143 -202 -59 -492 -176 -640
-257 -36 -20 -90 -49 -120 -66 -59 -31 -329 -208 -352 -229 -7 -7 -42 -35 -78
-63 -75 -57 -97 -76 -240 -206 -181 -165 -365 -384 -525 -624 -325 -490 -510
-1005 -577 -1610 -27 -249 -14 -677 28 -940 44 -273 142 -618 230 -813 187
-412 345 -665 609 -971 70 -82 288 -294 385 -375 200 -167 467 -345 680 -451
1004 -504 2207 -510 3196 -17 161 80 476 269 504 302 3 3 21 17 40 30 19 13
37 27 40 30 3 3 23 18 45 35 22 16 53 41 69 55 17 14 50 43 75 64 162 139 415
419 548 606 110 156 258 403 311 520 11 25 34 77 52 115 267 587 364 1352 255
2015 -44 268 -135 599 -210 765 -13 28 -35 79 -50 115 -41 98 -125 263 -189
369 -31 51 -56 97 -56 101 0 5 -3 10 -7 12 -5 2 -21 23 -37 48 -116 180 -285
381 -485 578 -555 546 -1292 897 -2060 981 -180 20 -389 29 -541 24z m535
-194 c308 -37 614 -117 905 -239 795 -333 1451 -985 1795 -1785 394 -916 363
-1970 -85 -2865 -117 -234 -312 -532 -435 -666 -5 -6 -34 -38 -64 -72 -60 -70
-241 -249 -285 -283 -16 -13 -45 -38 -65 -56 -20 -19 -86 -71 -146 -117 -491
-373 -1103 -609 -1725 -665 -241 -22 -608 -9 -850 30 -455 74 -928 258 -1310
512 -216 143 -310 220 -514 422 -186 185 -201 201 -316 351 -413 538 -651
1179 -692 1867 -28 466 38 923 197 1362 120 333 278 618 508 920 135 177 366
416 507 525 25 19 50 40 55 46 15 16 119 93 210 155 200 136 448 267 660 349
61 23 119 46 130 51 45 19 275 82 398 109 363 79 732 95 1122 49z"/>
<path d="M4485 6174 c-11 -2 -51 -12 -90 -20 -74 -17 -218 -83 -282 -130 -21
-15 -59 -48 -85 -73 l-47 -44 -98 12 c-730 91 -1445 -151 -1968 -665 -428
-421 -662 -952 -700 -1591 l-7 -112 -42 -34 c-22 -19 -59 -61 -81 -93 -21 -33
-40 -61 -42 -63 -2 -3 -16 8 -32 23 -41 39 -71 115 -78 195 -7 79 17 238 51
341 l22 67 -28 -20 c-15 -12 -28 -23 -28 -27 0 -3 -14 -21 -32 -40 -45 -49
-114 -201 -132 -292 -20 -98 -21 -282 -1 -384 25 -129 116 -297 213 -392 113
-110 252 -191 365 -214 l59 -12 45 -91 c179 -357 464 -678 805 -905 279 -185
577 -302 933 -366 146 -27 586 -27 735 -1 199 35 415 98 558 162 66 29 71 29
167 -5 33 -11 93 -22 135 -24 l75 -4 -4 -28 c-4 -35 -34 -95 -64 -131 -54 -63
-218 -147 -372 -188 l-80 -22 53 -12 c76 -16 225 -14 301 5 226 55 455 230
553 420 69 134 89 208 95 354 3 70 1 149 -5 180 -12 62 -16 52 69 156 94 117
198 282 274 439 485 992 216 2188 -647 2876 -56 45 -117 91 -134 101 -28 16
-32 25 -37 77 -8 74 -39 157 -83 222 -19 28 -34 55 -34 59 0 14 80 40 124 40
60 0 164 -34 239 -77 73 -42 191 -123 195 -135 5 -12 22 -10 22 3 0 6 -19 42
-41 81 -99 169 -284 300 -515 364 -57 15 -258 28 -299 18z m-655 -335 c46 -5
86 -12 87 -13 2 -2 -10 -32 -26 -67 -18 -39 -35 -97 -42 -149 -11 -73 -10 -95
4 -159 44 -195 178 -339 369 -398 81 -25 227 -23 310 6 159 53 276 169 324
321 9 30 18 57 20 59 5 5 125 -82 185 -135 409 -358 679 -855 766 -1406 24
-153 24 -487 0 -643 -48 -303 -147 -582 -298 -837 -68 -115 -206 -308 -220
-308 -3 0 -25 29 -48 64 -185 287 -581 312 -818 53 -88 -97 -133 -213 -133
-347 0 -126 36 -223 120 -328 l49 -61 -74 -30 c-41 -17 -129 -47 -196 -66
-562 -162 -1134 -109 -1655 153 -418 211 -736 516 -967 929 -69 124 -69 118
10 133 138 25 258 106 335 224 55 85 79 172 80 282 1 157 -44 268 -152 376
-123 123 -288 177 -442 145 -40 -9 -84 -19 -97 -23 l-23 -7 6 84 c29 357 90
591 226 874 339 703 999 1176 1775 1274 101 12 426 13 525 0z"/>
<path d="M3430 4114 c-185 -48 -333 -192 -396 -384 -37 -115 -20 -291 41 -410
61 -118 185 -226 310 -271 76 -27 231 -37 306 -19 212 49 380 220 425 432 61
285 -121 580 -402 652 -76 20 -210 20 -284 0z"/>
</g>
</svg>
