<?xml version="1.0" standalone="no"?>
<!DOCTYPE svg PUBLIC "-//W3C//DTD SVG 20010904//EN"
 "http://www.w3.org/TR/2001/REC-SVG-20010904/DTD/svg10.dtd">
<svg version="1.0" xmlns="http://www.w3.org/2000/svg"
 width="1006.000000pt" height="1004.000000pt" viewBox="0 0 1006.000000 1004.000000"
 preserveAspectRatio="xMidYMid meet">
<metadata>
Created by potrace 1.13, written by Peter Selinger 2001-2015
</metadata>
<g transform="translate(0.000000,1004.000000) scale(0.100000,-0.100000)"
fill="#000000" stroke="none">
<path d="M4790 10020 c-295 -14 -569 -49 -850 -110 -52 -11 -138 -32 -190 -46
-52 -14 -117 -32 -145 -39 -70 -19 -289 -95 -415 -143 -264 -102 -588 -265
-815 -411 -44 -28 -88 -54 -98 -57 -9 -4 -17 -10 -17 -15 0 -5 -5 -9 -10 -9
-6 0 -40 -21 -75 -47 -35 -27 -92 -68 -127 -93 -321 -230 -742 -639 -963 -935
-17 -22 -33 -42 -36 -45 -14 -11 -188 -262 -249 -359 -36 -57 -74 -117 -86
-135 -21 -32 -74 -129 -161 -296 -104 -197 -219 -480 -297 -725 -348 -1102
-312 -2296 100 -3354 36 -90 71 -180 80 -200 31 -68 187 -386 193 -391 3 -3
17 -25 30 -50 41 -76 124 -213 158 -261 18 -26 33 -49 33 -53 0 -13 258 -359
329 -441 23 -27 68 -79 99 -115 86 -100 368 -377 474 -466 163 -136 190 -158
232 -189 23 -16 43 -32 46 -35 12 -14 244 -172 340 -232 93 -57 137 -83 305
-176 44 -25 222 -112 300 -147 186 -84 521 -204 725 -259 210 -57 532 -118
775 -145 374 -43 924 -34 1250 19 33 5 105 16 160 25 100 16 137 23 340 70
487 112 1071 363 1500 643 205 134 505 359 570 427 11 11 40 37 65 57 56 45
267 251 346 339 32 36 75 84 95 106 20 22 76 89 124 149 48 60 95 119 106 132
10 12 19 25 19 28 0 3 13 23 28 43 45 58 174 249 227 336 328 540 551 1140
654 1760 53 312 65 471 64 850 0 369 -8 481 -57 795 -45 288 -137 649 -230
900 -188 508 -390 881 -712 1316 -46 61 -89 118 -96 125 -7 8 -35 41 -63 74
-71 86 -93 111 -160 183 -76 82 -298 299 -350 343 -21 19 -46 41 -55 49 -8 8
-38 33 -65 55 -28 22 -52 43 -55 46 -3 3 -61 48 -130 101 -327 248 -688 458
-1055 613 -60 25 -125 53 -144 61 -69 31 -419 143 -551 178 -212 54 -438 98
-625 121 -285 34 -613 47 -885 35z m710 -255 c599 -61 1132 -215 1654 -477
663 -332 1217 -792 1673 -1388 141 -185 349 -509 335 -522 -8 -7 -65 -13 -347
-33 -228 -17 -479 -40 -590 -56 -118 -16 -339 -61 -352 -71 -7 -6 -33 -12 -58
-13 -24 -2 -97 -16 -162 -31 -82 -19 -118 -23 -121 -15 -8 24 -135 211 -143
211 -5 0 -9 6 -9 14 0 17 -115 168 -226 296 -104 121 -314 325 -424 413 -489
392 -1148 634 -1930 709 -194 18 -685 15 -880 -6 -661 -72 -1283 -266 -1817
-569 -369 -210 -667 -445 -954 -754 -75 -80 -77 -82 -110 -73 -19 4 -51 11
-72 15 l-37 6 27 47 c14 26 63 103 109 172 480 730 1145 1311 1928 1685 561
268 1163 421 1806 459 126 7 557 -4 700 -19z m-325 -1795 c231 -13 465 -49
615 -95 25 -8 56 -16 70 -19 26 -5 159 -50 240 -81 45 -17 87 -35 189 -82 84
-39 266 -140 338 -189 37 -24 77 -44 90 -44 13 0 23 -6 23 -14 0 -7 42 -46 93
-87 162 -128 323 -278 310 -289 -4 -4 -37 -13 -73 -19 -229 -43 -522 -129
-920 -271 -80 -28 -206 -71 -280 -95 -74 -24 -160 -52 -190 -63 -30 -11 -104
-35 -164 -53 l-109 -33 -286 57 c-395 78 -1662 328 -1966 387 -137 27 -259 51
-270 53 -16 3 -2 21 80 101 497 490 1184 795 1875 835 80 4 150 9 155 9 6 1
87 -3 180 -8z m-4324 -1001 c445 -561 517 -642 842 -947 l108 -101 -24 -48
c-49 -95 -156 -381 -197 -521 -104 -361 -136 -601 -127 -946 7 -253 32 -444
88 -683 39 -164 138 -472 161 -500 6 -7 8 -13 5 -13 -21 0 207 -484 307 -653
25 -43 46 -79 46 -82 0 -14 262 -392 334 -482 221 -276 535 -589 796 -797 493
-391 1075 -670 1648 -790 67 -14 124 -26 126 -26 2 0 11 -19 19 -43 8 -23 18
-51 23 -61 7 -19 2 -19 -182 -12 -203 7 -205 7 -429 37 -1004 133 -1963 605
-2691 1324 -110 109 -251 263 -329 360 -22 28 -42 52 -45 55 -30 29 -167 218
-251 345 -441 665 -691 1373 -775 2190 -22 216 -22 671 0 895 51 510 168 973
362 1427 25 59 55 125 66 146 23 47 23 47 119 -74z m8592 -154 c176 -444 274
-843 329 -1345 17 -152 17 -747 0 -900 -51 -467 -144 -862 -298 -1260 -329
-855 -899 -1598 -1641 -2141 -608 -445 -1328 -744 -2058 -855 -305 -46 -399
-52 -369 -22 3 4 20 48 39 100 18 51 56 154 85 228 147 382 215 605 291 952
l32 147 56 6 c50 5 225 28 306 41 328 50 689 179 995 355 168 97 441 296 580
424 123 112 365 364 460 478 138 167 308 407 417 590 105 176 246 454 238 467
-4 6 -2 10 3 10 20 0 157 347 226 570 92 301 160 648 186 955 5 66 10 220 10
343 0 314 -28 566 -97 860 l-27 113 65 65 64 65 34 -73 c19 -40 52 -118 74
-173z m-4257 -686 c198 -35 387 -124 536 -251 31 -26 60 -48 65 -48 4 0 13 -8
18 -19 6 -10 33 -46 60 -81 105 -131 173 -272 217 -448 32 -127 31 -360 -1
-487 -33 -131 -90 -265 -147 -349 -7 -10 -10 -25 -7 -32 3 -8 -1 -14 -8 -14
-8 0 -41 -33 -73 -73 -68 -83 -176 -173 -280 -234 -39 -23 -75 -46 -81 -50
-12 -10 -191 -67 -265 -85 -35 -8 -115 -13 -215 -12 -144 0 -170 3 -265 29
-58 16 -124 29 -147 29 -34 0 -43 5 -47 21 -6 21 -80 62 -103 57 -7 -2 -13 4
-13 13 0 8 -4 15 -9 15 -16 0 -137 98 -204 165 -149 150 -252 348 -293 563
-19 98 -18 309 2 412 45 237 177 467 359 622 107 90 125 103 255 166 41 20 77
40 78 44 2 5 7 6 11 4 4 -3 30 2 57 10 131 41 368 57 500 33z m2728 -521 c136
-667 50 -1344 -249 -1937 -24 -49 -41 -91 -38 -95 4 -3 2 -6 -4 -6 -6 0 -33
-39 -61 -87 -70 -122 -199 -300 -314 -435 -241 -284 -593 -552 -943 -718 -99
-48 -328 -141 -333 -136 -1 2 4 37 13 77 69 320 96 487 125 789 19 194 32 311
86 765 l17 140 378 380 c209 209 379 386 379 393 0 7 4 11 8 8 5 -3 213 197
463 444 250 247 457 449 460 450 4 0 9 -15 13 -32z m-5714 -72 c35 -36 68 -66
72 -66 3 0 28 -22 55 -50 26 -27 54 -50 61 -50 6 0 12 -4 12 -9 0 -18 182
-165 430 -347 52 -39 112 -84 134 -100 21 -16 51 -38 67 -50 46 -33 87 -65
169 -129 164 -129 282 -220 292 -226 5 -3 59 -145 119 -315 97 -272 170 -476
346 -969 26 -71 51 -133 55 -136 5 -3 8 -10 7 -15 -4 -12 -8 2 172 -506 87
-246 159 -453 159 -459 0 -6 -7 -8 -15 -5 -9 3 -44 13 -78 21 -94 24 -302 93
-397 132 -290 120 -581 298 -796 490 -40 34 -74 63 -77 63 -2 0 -45 42 -95 93
-677 693 -975 1623 -821 2567 11 69 22 131 24 138 7 19 31 3 105 -72z"/>
</g>
</svg>
